<svg width="180" height="30" viewBox="0 0 180 30" fill="none" xmlns="http://www.w3.org/2000/svg">
<g clip-path="url(#clip0_27_2)">
<path d="M13.432 10.056C12.712 10.056 12.184 9.896 11.848 9.576C11.528 9.24 11.368 8.816 11.368 8.304V7.776C11.368 7.264 11.528 6.848 11.848 6.528C12.184 6.192 12.712 6.024 13.432 6.024C14.152 6.024 14.672 6.192 14.992 6.528C15.328 6.848 15.496 7.264 15.496 7.776V8.304C15.496 8.816 15.328 9.24 14.992 9.576C14.672 9.896 14.152 10.056 13.432 10.056ZM11.656 11.4H15.208V24H11.656V11.4ZM25.6992 10.488V24H22.0512V10.488H17.5152V7.248H30.2352V10.488H25.6992ZM36.2245 24.288C35.2645 24.288 34.4085 24.136 33.6565 23.832C32.9045 23.512 32.2645 23.072 31.7365 22.512C31.2245 21.936 30.8325 21.24 30.5605 20.424C30.3045 19.608 30.1765 18.696 30.1765 17.688C30.1765 16.696 30.3045 15.8 30.5605 15C30.8165 14.184 31.1925 13.488 31.6885 12.912C32.2005 12.336 32.8245 11.896 33.5605 11.592C34.2965 11.272 35.1365 11.112 36.0805 11.112C37.1205 11.112 38.0085 11.288 38.7445 11.64C39.4965 11.992 40.1045 12.464 40.5685 13.056C41.0485 13.648 41.3925 14.336 41.6005 15.12C41.8245 15.888 41.9365 16.696 41.9365 17.544V18.6H33.8485V18.792C33.8485 19.624 34.0725 20.288 34.5205 20.784C34.9685 21.264 35.6725 21.504 36.6325 21.504C37.3685 21.504 37.9685 21.36 38.4325 21.072C38.8965 20.768 39.3285 20.408 39.7285 19.992L41.5045 22.2C40.9445 22.856 40.2085 23.368 39.2965 23.736C38.4005 24.104 37.3765 24.288 36.2245 24.288ZM36.1525 13.728C35.4325 13.728 34.8645 13.968 34.4485 14.448C34.0485 14.912 33.8485 15.536 33.8485 16.32V16.512H38.2645V16.296C38.2645 15.528 38.0885 14.912 37.7365 14.448C37.4005 13.968 36.8725 13.728 36.1525 13.728ZM49.5331 24.288C48.5891 24.288 47.7491 24.136 47.0131 23.832C46.2771 23.512 45.6611 23.072 45.1651 22.512C44.6691 21.936 44.2931 21.24 44.0371 20.424C43.7811 19.608 43.6531 18.696 43.6531 17.688C43.6531 16.68 43.7811 15.776 44.0371 14.976C44.2931 14.16 44.6691 13.464 45.1651 12.888C45.6611 12.312 46.2771 11.872 47.0131 11.568C47.7491 11.264 48.5891 11.112 49.5331 11.112C50.8131 11.112 51.8771 11.4 52.7251 11.976C53.5891 12.552 54.2051 13.36 54.5731 14.4L51.6931 15.648C51.5811 15.168 51.3491 14.76 50.9971 14.424C50.6451 14.088 50.1571 13.92 49.5331 13.92C48.8131 13.92 48.2691 14.16 47.9011 14.64C47.5331 15.104 47.3491 15.736 47.3491 16.536V18.888C47.3491 19.688 47.5331 20.32 47.9011 20.784C48.2691 21.248 48.8131 21.48 49.5331 21.48C50.1731 21.48 50.6771 21.312 51.0451 20.976C51.4291 20.624 51.7091 20.168 51.8851 19.608L54.6451 20.808C54.2291 22.008 53.5811 22.888 52.7011 23.448C51.8371 24.008 50.7811 24.288 49.5331 24.288ZM56.8435 6.24H60.3955V13.536H60.5395C60.7635 12.88 61.1555 12.312 61.7155 11.832C62.2755 11.352 63.0515 11.112 64.0435 11.112C65.3395 11.112 66.3155 11.544 66.9715 12.408C67.6435 13.272 67.9795 14.504 67.9795 16.104V24H64.4275V16.392C64.4275 15.576 64.2995 14.976 64.0435 14.592C63.7875 14.192 63.3315 13.992 62.6755 13.992C62.3875 13.992 62.1075 14.032 61.8355 14.112C61.5635 14.176 61.3155 14.288 61.0915 14.448C60.8835 14.608 60.7155 14.808 60.5875 15.048C60.4595 15.272 60.3955 15.536 60.3955 15.84V24H56.8435V6.24Z" fill="black"/>
<path d="M92.008 28.416H89.752C88.456 28.416 87.512 28.112 86.92 27.504C86.328 26.896 86.032 26.016 86.032 24.864V24.168C84.24 23.848 82.816 22.976 81.76 21.552C80.72 20.112 80.2 18.136 80.2 15.624C80.2 14.2 80.376 12.952 80.728 11.88C81.08 10.792 81.576 9.888 82.216 9.168C82.856 8.432 83.632 7.88 84.544 7.512C85.456 7.144 86.464 6.96 87.568 6.96C88.672 6.96 89.68 7.144 90.592 7.512C91.504 7.88 92.28 8.432 92.92 9.168C93.56 9.888 94.056 10.792 94.408 11.88C94.76 12.952 94.936 14.2 94.936 15.624C94.936 18.056 94.44 19.984 93.448 21.408C92.472 22.832 91.136 23.728 89.44 24.096V25.44H92.008V28.416ZM87.568 21.048C88.672 21.048 89.528 20.688 90.136 19.968C90.76 19.248 91.072 18.216 91.072 16.872V14.376C91.072 13.032 90.76 12 90.136 11.28C89.528 10.56 88.672 10.2 87.568 10.2C86.464 10.2 85.6 10.56 84.976 11.28C84.368 12 84.064 13.032 84.064 14.376V16.872C84.064 18.216 84.368 19.248 84.976 19.968C85.6 20.688 86.464 21.048 87.568 21.048ZM105.229 21.888H105.109C104.997 22.208 104.845 22.512 104.653 22.8C104.477 23.088 104.245 23.344 103.957 23.568C103.669 23.792 103.325 23.968 102.925 24.096C102.541 24.224 102.093 24.288 101.581 24.288C100.285 24.288 99.3008 23.864 98.6288 23.016C97.9728 22.152 97.6448 20.92 97.6448 19.32V11.4H101.197V19.008C101.197 19.776 101.333 20.368 101.605 20.784C101.877 21.2 102.341 21.408 102.997 21.408C103.269 21.408 103.541 21.368 103.813 21.288C104.085 21.208 104.325 21.096 104.533 20.952C104.741 20.792 104.909 20.6 105.037 20.376C105.165 20.152 105.229 19.888 105.229 19.584V11.4H108.781V24H105.229V21.888ZM121.398 24C120.758 24 120.222 23.8 119.79 23.4C119.374 23 119.11 22.464 118.998 21.792H118.854C118.662 22.608 118.238 23.232 117.582 23.664C116.926 24.08 116.118 24.288 115.158 24.288C113.894 24.288 112.926 23.952 112.254 23.28C111.582 22.608 111.246 21.72 111.246 20.616C111.246 19.288 111.726 18.304 112.686 17.664C113.662 17.008 114.982 16.68 116.646 16.68H118.638V15.888C118.638 15.28 118.478 14.8 118.158 14.448C117.838 14.08 117.302 13.896 116.55 13.896C115.846 13.896 115.286 14.048 114.87 14.352C114.454 14.656 114.11 15 113.838 15.384L111.726 13.512C112.238 12.76 112.878 12.176 113.646 11.76C114.43 11.328 115.486 11.112 116.814 11.112C118.606 11.112 119.95 11.504 120.846 12.288C121.742 13.072 122.19 14.216 122.19 15.72V21.24H123.366V24H121.398ZM116.478 21.816C117.07 21.816 117.574 21.688 117.99 21.432C118.422 21.176 118.638 20.76 118.638 20.184V18.696H116.91C115.518 18.696 114.822 19.168 114.822 20.112V20.472C114.822 20.936 114.966 21.28 115.254 21.504C115.542 21.712 115.95 21.816 116.478 21.816ZM129.278 24C128.062 24 127.166 23.704 126.59 23.112C126.03 22.52 125.75 21.664 125.75 20.544V6.24H129.302V21.24H130.886V24H129.278ZM134.791 10.056C134.071 10.056 133.543 9.896 133.207 9.576C132.887 9.24 132.727 8.816 132.727 8.304V7.776C132.727 7.264 132.887 6.848 133.207 6.528C133.543 6.192 134.071 6.024 134.791 6.024C135.511 6.024 136.031 6.192 136.351 6.528C136.687 6.848 136.855 7.264 136.855 7.776V8.304C136.855 8.816 136.687 9.24 136.351 9.576C136.031 9.896 135.511 10.056 134.791 10.056ZM133.015 11.4H136.567V24H133.015V11.4ZM144.299 24C143.067 24 142.131 23.688 141.491 23.064C140.867 22.44 140.555 21.528 140.555 20.328V14.16H138.779V11.4H139.667C140.147 11.4 140.475 11.288 140.651 11.064C140.827 10.824 140.915 10.488 140.915 10.056V7.992H144.107V11.4H146.603V14.16H144.107V21.24H146.411V24H144.299ZM156.774 11.4H160.086L155.238 25.944C154.918 26.92 154.462 27.64 153.87 28.104C153.294 28.568 152.462 28.8 151.374 28.8H149.166V26.04H151.542L151.974 24.648L147.558 11.4H151.086L152.934 17.28L153.846 20.928H153.99L154.926 17.28L156.774 11.4ZM162.876 24.264C162.156 24.264 161.62 24.088 161.268 23.736C160.932 23.368 160.764 22.904 160.764 22.344V21.864C160.764 21.304 160.932 20.848 161.268 20.496C161.62 20.128 162.156 19.944 162.876 19.944C163.596 19.944 164.124 20.128 164.46 20.496C164.812 20.848 164.988 21.304 164.988 21.864V22.344C164.988 22.904 164.812 23.368 164.46 23.736C164.124 24.088 163.596 24.264 162.876 24.264Z" fill="#010420"/>
</g>
<defs>
<clipPath id="clip0_27_2">
<rect width="180" height="30" fill="white"/>
</clipPath>
</defs>
</svg>
